<mxfile host="app.diagrams.net" modified="2023-04-03T22:35:25.072Z" agent="5.0 (Windows NT 10.0; Win64; x64) AppleWebKit/537.36 (KHTML, like Gecko) Chrome/111.0.0.0 Safari/537.36" etag="90aSrF9DBV8MMPRszJlf" version="21.0.6" type="github">
  <diagram name="Página-1" id="6CV77ERPc7TRlIZMSjUV">
    <mxGraphModel dx="993" dy="600" grid="1" gridSize="10" guides="1" tooltips="1" connect="1" arrows="1" fold="1" page="1" pageScale="1" pageWidth="827" pageHeight="1169" math="0" shadow="0">
      <root>
        <mxCell id="0" />
        <mxCell id="1" parent="0" />
        <mxCell id="H_qHdw_m3kpP6-HbCO0N-1" value="Adotar Cachorro" style="ellipse;whiteSpace=wrap;html=1;" vertex="1" parent="1">
          <mxGeometry x="320" y="60" width="120" height="80" as="geometry" />
        </mxCell>
        <mxCell id="H_qHdw_m3kpP6-HbCO0N-2" value="Adicionar Cachorro ao Quintal" style="ellipse;whiteSpace=wrap;html=1;" vertex="1" parent="1">
          <mxGeometry x="320" y="150" width="120" height="80" as="geometry" />
        </mxCell>
        <mxCell id="H_qHdw_m3kpP6-HbCO0N-3" value="Fazer carinho em Cachorro" style="ellipse;whiteSpace=wrap;html=1;" vertex="1" parent="1">
          <mxGeometry x="320" y="240" width="120" height="80" as="geometry" />
        </mxCell>
        <mxCell id="H_qHdw_m3kpP6-HbCO0N-4" value="Dar banho em Cachorro" style="ellipse;whiteSpace=wrap;html=1;" vertex="1" parent="1">
          <mxGeometry x="320" y="330" width="120" height="80" as="geometry" />
        </mxCell>
        <mxCell id="H_qHdw_m3kpP6-HbCO0N-5" value="Se coçar" style="ellipse;whiteSpace=wrap;html=1;" vertex="1" parent="1">
          <mxGeometry x="320" y="450" width="120" height="80" as="geometry" />
        </mxCell>
        <mxCell id="H_qHdw_m3kpP6-HbCO0N-6" value="Sugar" style="ellipse;whiteSpace=wrap;html=1;" vertex="1" parent="1">
          <mxGeometry x="320" y="570" width="120" height="80" as="geometry" />
        </mxCell>
        <mxCell id="H_qHdw_m3kpP6-HbCO0N-7" value="Pular" style="ellipse;whiteSpace=wrap;html=1;" vertex="1" parent="1">
          <mxGeometry x="320" y="660" width="120" height="80" as="geometry" />
        </mxCell>
        <mxCell id="H_qHdw_m3kpP6-HbCO0N-8" value="Pessoa" style="shape=umlActor;verticalLabelPosition=bottom;verticalAlign=top;html=1;outlineConnect=0;" vertex="1" parent="1">
          <mxGeometry x="130" y="190" width="30" height="60" as="geometry" />
        </mxCell>
        <mxCell id="H_qHdw_m3kpP6-HbCO0N-9" value="Cachorro" style="shape=umlActor;verticalLabelPosition=bottom;verticalAlign=top;html=1;outlineConnect=0;" vertex="1" parent="1">
          <mxGeometry x="120" y="460" width="30" height="60" as="geometry" />
        </mxCell>
        <mxCell id="H_qHdw_m3kpP6-HbCO0N-10" value="Pulga" style="shape=umlActor;verticalLabelPosition=bottom;verticalAlign=top;html=1;outlineConnect=0;" vertex="1" parent="1">
          <mxGeometry x="120" y="630" width="30" height="60" as="geometry" />
        </mxCell>
        <mxCell id="H_qHdw_m3kpP6-HbCO0N-13" value="" style="endArrow=classic;html=1;rounded=0;entryX=0;entryY=0.5;entryDx=0;entryDy=0;" edge="1" parent="1" target="H_qHdw_m3kpP6-HbCO0N-6">
          <mxGeometry width="50" height="50" relative="1" as="geometry">
            <mxPoint x="160" y="660" as="sourcePoint" />
            <mxPoint x="240" y="610" as="targetPoint" />
          </mxGeometry>
        </mxCell>
        <mxCell id="H_qHdw_m3kpP6-HbCO0N-14" value="" style="endArrow=classic;html=1;rounded=0;entryX=0;entryY=0.5;entryDx=0;entryDy=0;" edge="1" parent="1" target="H_qHdw_m3kpP6-HbCO0N-7">
          <mxGeometry width="50" height="50" relative="1" as="geometry">
            <mxPoint x="160" y="660" as="sourcePoint" />
            <mxPoint x="240" y="610" as="targetPoint" />
          </mxGeometry>
        </mxCell>
        <mxCell id="H_qHdw_m3kpP6-HbCO0N-16" value="" style="endArrow=classic;html=1;rounded=0;" edge="1" parent="1" target="H_qHdw_m3kpP6-HbCO0N-5">
          <mxGeometry width="50" height="50" relative="1" as="geometry">
            <mxPoint x="160" y="490" as="sourcePoint" />
            <mxPoint x="280" y="490" as="targetPoint" />
          </mxGeometry>
        </mxCell>
        <mxCell id="H_qHdw_m3kpP6-HbCO0N-18" value="" style="endArrow=classic;html=1;rounded=0;" edge="1" parent="1" target="H_qHdw_m3kpP6-HbCO0N-1">
          <mxGeometry width="50" height="50" relative="1" as="geometry">
            <mxPoint x="170" y="220" as="sourcePoint" />
            <mxPoint x="220" y="170" as="targetPoint" />
          </mxGeometry>
        </mxCell>
        <mxCell id="H_qHdw_m3kpP6-HbCO0N-19" value="" style="endArrow=classic;html=1;rounded=0;" edge="1" parent="1" target="H_qHdw_m3kpP6-HbCO0N-2">
          <mxGeometry width="50" height="50" relative="1" as="geometry">
            <mxPoint x="170" y="220" as="sourcePoint" />
            <mxPoint x="220" y="170" as="targetPoint" />
          </mxGeometry>
        </mxCell>
        <mxCell id="H_qHdw_m3kpP6-HbCO0N-20" value="" style="endArrow=classic;html=1;rounded=0;" edge="1" parent="1" target="H_qHdw_m3kpP6-HbCO0N-3">
          <mxGeometry width="50" height="50" relative="1" as="geometry">
            <mxPoint x="170" y="220" as="sourcePoint" />
            <mxPoint x="220" y="170" as="targetPoint" />
          </mxGeometry>
        </mxCell>
        <mxCell id="H_qHdw_m3kpP6-HbCO0N-21" value="" style="endArrow=classic;html=1;rounded=0;entryX=0;entryY=0;entryDx=0;entryDy=0;" edge="1" parent="1" target="H_qHdw_m3kpP6-HbCO0N-4">
          <mxGeometry width="50" height="50" relative="1" as="geometry">
            <mxPoint x="170" y="220" as="sourcePoint" />
            <mxPoint x="220" y="170" as="targetPoint" />
          </mxGeometry>
        </mxCell>
      </root>
    </mxGraphModel>
  </diagram>
</mxfile>
